<?xml version="1.0" encoding="UTF-8"?><svg xmlns="http://www.w3.org/2000/svg" viewBox="0 0 1080 835.27"><defs><style>.cls-1{letter-spacing:-.02em;}.cls-2{fill:#fff;}.cls-3,.cls-4{fill:#662e92;}.cls-5{fill:#c2c7cd;}.cls-6{fill:#2d3137;}.cls-4{font-family:Alfarn2, 'Alfarn 2';font-size:206.11px;}</style></defs><g id="Ebene_1"><path class="cls-5" d="M1079.99,539.93c-.6-203.66-117.9-393.34-300.43-484.07C687.5,10.11,582.81-7.95,480.7,3.21c-100.7,11.02-195.67,50.75-275.36,113C76.03,217.25,.48,376.35,0,539.93c-.01,3.57,1.34,6.88,3.55,9.43,2.34,3.06,6,5.15,11.03,5.15H407.03c4.88,0,8.5-1.98,10.84-4.88,2.24-2.32,3.7-5.55,3.74-9.7,.76-65.05,53.33-117.65,118.38-118.4,65.06-.76,117.64,54.49,118.38,118.4,.05,4.14,1.5,7.37,3.74,9.7,2.35,2.9,5.95,4.88,10.84,4.88h392.47c5.03,0,8.7-2.09,11.03-5.15,2.23-2.56,3.57-5.86,3.56-9.43h-.01ZM336.69,71.01C523.25-11.37,747.37,31.33,893.89,171.51c96.57,92.38,152.5,220.74,156.68,353.84h-68.98c-3.56-97.34-39.01-190.39-100.61-266.11-62.95-77.39-153.25-131.46-250.73-151.92-101.34-21.27-208.13-5.27-299.34,43.38-87.46,46.63-157.81,124.09-196.89,215-21.74,50.58-33.64,104.72-35.6,159.65H29.43c2.99-95.91,32.51-188.89,85.63-269.09,54.07-81.64,132.23-145.77,221.63-185.25h0Zm285.24,237.34c-97.25-35.72-210.09-1.64-274.07,78.78-31.54,39.65-49.73,87.93-52.97,138.23h-69.06c4.84-94.68,52.11-183.62,129.14-239.82,82.49-60.18,190.25-75.67,286.79-43.37,121.74,40.74,205.8,156.47,212.39,283.19h-69.06c-6.45-97.81-70.55-183-163.17-217.01h0Zm137.07-33.14c-79.87-66.25-186.07-92.02-287.65-72.17-76.38,14.93-146.54,58.14-196.07,117.86-47.86,57.71-75.21,129.83-78.7,204.45H127.59c3.7-95.4,40.08-187.16,103.52-258.94,65.52-74.11,157.62-123.37,255.83-135.96,101.18-12.96,203.79,12.56,287.8,70.1,81.25,55.66,139.93,141.12,164.9,236.1,7.64,29.03,11.7,58.75,12.77,88.68h-69.07c-4.54-96.62-49.55-188.1-124.34-250.13h0Zm-219.01,117.14c-75.97-.88-138.46,59.78-146.64,133h-69.23c7.05-95.39,76.36-176.06,170.63-197.21,99.86-22.38,201.48,32.89,243.47,124.5,10.44,22.78,16.05,47.71,17.73,72.71h-69.29c-8.12-74.12-70.65-132.11-146.68-133h0Z"/></g><g id="Ebene_4"><path class="cls-3" d="M539.99,392.36c-75.97-.88-138.46,59.78-146.64,133h-69.23c7.05-95.39,76.36-176.06,170.63-197.21,99.86-22.38,201.48,32.89,243.47,124.5,10.44,22.78,16.05,47.71,17.73,72.71h-69.29c-8.12-74.12-70.65-132.11-146.68-133h0Z"/></g><g id="Ebene_3"><text class="cls-4" transform="translate(127.58 788.89)"><tspan x="0" y="0">EDI</tspan><tspan class="cls-1" x="367.89" y="0">T</tspan><tspan x="499.8" y="0">OR</tspan></text></g><g id="Ebene_2"><g><path class="cls-2" d="M455.08,546.61c-6.35,0-11.5-5.15-11.5-11.5v-182.83L223.52,35.84c-2.44-3.52-2.73-8.1-.75-11.89,1.98-3.79,5.91-6.17,10.19-6.17h206.14c4.04,0,7.78,2.12,9.86,5.58l91.03,151.72L631.03,23.36c2.08-3.46,5.82-5.58,9.86-5.58h206.14c4.28,0,8.21,2.38,10.19,6.17,1.98,3.79,1.69,8.38-.75,11.89l-220.05,316.44v182.83c0,6.35-5.15,11.5-11.5,11.5h-169.85Z"/><path class="cls-6" d="M847.04,29.28h0m0,0l-222.11,319.4v186.43h-169.85v-186.43L232.97,29.28h206.14l97.99,163.31h5.81L640.9,29.28h206.14m0-23h-206.15c-8.08,0-15.57,4.24-19.72,11.17l-81.17,135.28L458.83,17.44c-4.16-6.93-11.64-11.17-19.72-11.17H232.97c-8.56,0-16.42,4.76-20.38,12.35-3.97,7.59-3.39,16.75,1.5,23.78l217.99,313.48v179.22c0,12.7,10.3,23,23,23h169.85c12.7,0,23-10.3,23-23v-179.22L865.7,42.72c2.73-3.78,4.34-8.42,4.34-13.44,0-12.7-10.29-23-23-23h0Zm0,46h0Z"/></g></g></svg>